
        <svg xmlns="http://www.w3.org/2000/svg" xmlns:xlink="http://www.w3.org/1999/xlink" version="1.1" width="3171.4285714285716" 
        height="1135.5288316640645" viewBox="0 0 3171.4285714285716 1135.5288316640645">
			
			<g transform="scale(8.571428571428571) translate(10, 10)">
				<defs id="SvgjsDefs2235"></defs><g id="SvgjsG2236" featureKey="nameFeature-0" transform="matrix(4.017078397529396,0,0,4.017078397529396,7.183095927589051e-7,-48.204929277399266)" fill="#000000"><path d="M14 12 c1.1467 0 2.2334 0.22 3.26 0.66 s1.92 1.04 2.68 1.8 s1.36 1.6533 1.8 2.68 s0.66 2.1134 0.66 3.26 l0 11.2 c0 1.1733 -0.22 2.2666 -0.66 3.28 s-1.04 1.9 -1.8 2.66 s-1.6533 1.36 -2.68 1.8 s-2.1134 0.66 -3.26 0.66 l-5.6 0 c-1.1733 0 -2.2666 -0.22 -3.28 -0.66 s-1.9 -1.04 -2.66 -1.8 s-1.36 -1.6467 -1.8 -2.66 s-0.66 -2.1066 -0.66 -3.28 l0 -11.2 c0 -1.1467 0.22 -2.2334 0.66 -3.26 s1.04 -1.92 1.8 -2.68 s1.6467 -1.36 2.66 -1.8 s2.1066 -0.66 3.28 -0.66 l5.6 0 z M16.8 20.4 c0 -0.77332 -0.27332 -1.4333 -0.82 -1.98 s-1.2067 -0.82 -1.98 -0.82 l-5.6 0 c-0.77332 0 -1.4333 0.27332 -1.98 0.82 s-0.82 1.2067 -0.82 1.98 l0 11.2 c0 0.77332 0.27332 1.4333 0.82 1.98 s1.2067 0.82 1.98 0.82 l5.6 0 c0.77332 0 1.4333 -0.27332 1.98 -0.82 s0.82 -1.2067 0.82 -1.98 l0 -11.2 z M47.184 12 c1.2267 0 2.3867 0.23336 3.48 0.70004 s2.0466 1.1067 2.86 1.92 s1.4533 1.7666 1.92 2.86 s0.7 2.2533 0.7 3.48 c0 1.2533 -0.23332 2.42 -0.7 3.5 s-1.1067 2.0267 -1.92 2.84 s-1.7666 1.4533 -2.86 1.92 s-2.2533 0.7 -3.48 0.7 l-4.76 0 l0 4.48 l2.8 0 l0 5.6 l-11.2 0 l0 -5.6 l2.8 0 l0 -16.8 l-2.8 0 l0 -5.6 l13.16 0 z M47.184 24.32 c0.93332 0 1.7266 -0.32676 2.38 -0.98008 s0.98 -1.4466 0.98 -2.38 s-0.32668 -1.7266 -0.98 -2.38 s-1.4466 -0.98 -2.38 -0.98 l-4.76 0 l0 6.72 l4.76 0 z M87.12799999999999 12 l0 8.4 l-5.6 0 l0 -2.8 l-5.6 0 l0 5.6 l5.6 0 l0 5.6 l-5.6 0 l0 5.6 l5.6 0 l0 -2.8 l5.6 0 l0 8.4 l-19.6 0 l0 -5.6 l2.8 0 l0 -16.8 l-2.8 0 l0 -5.6 l19.6 0 z"></path></g>
			</g>
		</svg>
	